<?xml version="1.0" standalone="no"?>
<!DOCTYPE svg PUBLIC "-//W3C//DTD SVG 20010904//EN"
 "http://www.w3.org/TR/2001/REC-SVG-20010904/DTD/svg10.dtd">
<svg version="1.0" xmlns="http://www.w3.org/2000/svg"
 width="512.000000pt" height="512.000000pt" viewBox="0 0 512.000000 512.000000"
 preserveAspectRatio="xMidYMid meet">

<g transform="translate(0.000000,512.000000) scale(0.100000,-0.100000)"
fill="#000000" stroke="none">
<path d="M1843 5104 c-17 -9 -39 -24 -48 -34 -41 -45 -44 -80 -45 -465 l0
-370 -29 -16 c-46 -26 -71 -92 -71 -185 0 -160 54 -238 201 -291 136 -49 223
-63 398 -63 223 0 446 37 558 91 80 38 113 114 113 253 0 113 -20 163 -79 200
l-40 26 -3 387 c-3 383 -3 388 -25 419 -46 64 -49 64 -495 64 -345 0 -408 -3
-435 -16z m785 -521 l-3 -368 -75 -12 c-97 -15 -440 -16 -533 -2 -41 7 -77 18
-84 27 -10 12 -13 100 -13 362 0 191 3 350 7 353 3 4 163 7 355 7 l348 0 -2
-367z m-767 -519 c121 -62 719 -61 840 2 45 23 49 19 49 -51 0 -50 -4 -69 -18
-83 -23 -23 -155 -56 -284 -72 -126 -16 -374 -8 -451 14 -96 27 -153 55 -166
82 -11 25 -16 124 -6 124 4 0 20 -7 36 -16z"/>
<path d="M1696 3645 c-22 -8 -51 -22 -65 -33 -67 -48 -240 -454 -331 -772
-102 -360 -136 -647 -119 -1000 27 -556 134 -1150 267 -1485 30 -75 46 -100
96 -150 50 -49 76 -66 146 -93 299 -115 737 -140 1310 -76 270 30 512 89 650
159 124 63 162 118 196 287 30 153 70 437 84 608 24 277 12 746 -26 1080 -57
496 -217 846 -525 1146 -151 146 -357 296 -453 328 -63 21 -100 20 -241 -8
-310 -62 -600 -60 -862 8 -73 19 -77 19 -127 1z m248 -201 c45 -9 159 -18 254
-21 191 -7 315 4 511 44 70 14 135 22 150 18 62 -15 258 -157 390 -281 250
-235 400 -528 466 -909 45 -264 69 -862 46 -1165 -13 -169 -50 -448 -80 -604
-28 -144 -46 -162 -218 -221 -324 -112 -1005 -165 -1401 -110 -210 30 -369 86
-416 147 -80 106 -210 651 -260 1093 -70 612 -40 994 116 1484 58 183 212 545
239 562 6 4 36 0 67 -8 31 -8 92 -21 136 -29z"/>
<path d="M2765 2751 c-46 -20 -101 -79 -121 -127 -19 -44 -18 -113 2 -160 9
-22 60 -102 114 -179 185 -266 185 -264 213 -410 15 -72 38 -195 52 -274 14
-80 35 -166 47 -193 73 -170 294 -185 400 -28 21 30 51 90 68 133 52 132 63
198 63 357 0 301 -71 479 -264 666 -113 109 -226 175 -371 215 -85 24 -151 24
-203 0z m193 -177 c95 -32 175 -80 252 -151 59 -54 132 -148 164 -211 33 -65
58 -210 59 -337 0 -145 -18 -228 -74 -342 -42 -88 -66 -106 -108 -84 -25 14
-32 40 -71 261 -65 367 -63 362 -259 644 -62 88 -114 170 -117 183 -8 30 20
63 53 63 14 0 59 -12 101 -26z"/>
</g>
</svg>
