<?xml version="1.0" standalone="no"?>
<!DOCTYPE svg PUBLIC "-//W3C//DTD SVG 20010904//EN"
 "http://www.w3.org/TR/2001/REC-SVG-20010904/DTD/svg10.dtd">
<svg version="1.0" xmlns="http://www.w3.org/2000/svg"
 width="512.000000pt" height="512.000000pt" viewBox="0 0 512.000000 512.000000"
 preserveAspectRatio="xMidYMid meet">

<g transform="translate(0.000000,512.000000) scale(0.100000,-0.100000)"
fill="#000000" stroke="none">
<path d="M1966 4949 c-26 -30 -26 -33 -26 -187 0 -171 -18 -314 -49 -406 -12
-32 -53 -109 -93 -170 -203 -313 -278 -446 -317 -558 -39 -113 -44 -189 -38
-565 7 -461 23 -570 96 -677 33 -48 95 -100 141 -118 14 -5 57 -11 95 -11 l70
-2 3 -68 c3 -80 -2 -84 -81 -67 -40 8 -108 43 -247 125 -105 62 -212 121 -238
130 -67 23 -186 30 -268 16 -100 -18 -170 -55 -343 -185 -85 -64 -156 -114
-158 -112 -4 4 -24 140 -62 436 -18 142 -22 157 -46 178 -21 18 -38 22 -91 22
-59 0 -68 3 -95 29 -27 28 -29 34 -29 109 0 75 2 81 35 125 58 76 67 115 34
146 -50 46 -119 31 -183 -40 -56 -63 -76 -124 -76 -235 0 -104 25 -176 81
-234 43 -45 108 -79 149 -80 55 -1 36 114 240 -1412 64 -478 116 -833 125
-855 21 -50 70 -101 120 -124 38 -18 109 -19 1866 -19 l1825 0 53 26 c64 32
106 86 121 157 9 41 300 2194 300 2218 0 3 19 11 42 18 85 26 152 91 184 178
18 52 18 197 -1 260 -19 64 -92 149 -139 162 -42 11 -79 4 -105 -20 -33 -31
-25 -67 33 -144 35 -45 36 -50 36 -129 0 -75 -2 -85 -24 -106 -18 -16 -42 -24
-82 -29 -85 -9 -87 -14 -131 -349 -21 -155 -40 -282 -43 -282 -3 0 -55 41
-115 91 -148 122 -183 145 -262 176 -59 23 -83 26 -178 26 -139 0 -166 -10
-385 -142 -90 -55 -165 -99 -166 -98 -5 5 17 380 26 472 6 55 29 188 50 295
99 501 78 663 -143 1052 -119 210 -116 201 -127 360 -5 79 -10 216 -10 305 0
156 -1 163 -24 190 -32 37 -93 39 -130 4 l-26 -24 0 -253 c0 -379 7 -412 136
-641 175 -309 200 -388 190 -608 -6 -141 -13 -187 -60 -412 -42 -196 -56 -362
-67 -798 -6 -225 -14 -423 -18 -440 -9 -39 -41 -50 -114 -41 l-57 7 0 535 c0
549 -1 562 -39 591 -28 22 -89 16 -116 -12 l-25 -24 0 -668 c0 -367 -4 -674
-8 -681 -12 -18 -71 -33 -101 -25 -14 3 -41 14 -58 25 l-33 20 0 654 c0 673 0
681 -39 711 -28 22 -89 16 -116 -12 l-25 -24 0 -711 c0 -823 4 -786 -80 -778
-87 9 -80 -60 -80 753 l0 723 -26 31 c-48 57 -133 36 -154 -37 -6 -24 -10
-266 -10 -673 l0 -637 -22 -6 c-33 -8 -58 -7 -101 5 -44 12 -51 26 -72 139
-28 147 -35 354 -35 1048 0 463 -4 710 -10 723 -16 28 -68 52 -99 44 -14 -4
-36 -16 -48 -27 l-23 -21 0 -418 c0 -463 5 -429 -69 -429 -29 0 -44 7 -68 33
-43 45 -49 61 -65 157 -9 61 -13 199 -13 480 0 384 1 397 23 460 29 84 99 208
254 450 184 286 208 368 208 707 l0 200 -26 27 c-39 38 -93 36 -128 -5z m-728
-2759 c24 -11 116 -63 204 -116 185 -111 236 -133 329 -141 l67 -6 7 -111 c18
-295 55 -468 112 -536 56 -65 101 -83 221 -88 l102 -4 16 -35 c34 -69 129
-113 248 -113 104 1 163 33 212 115 9 16 15 17 56 7 137 -35 284 13 333 108 8
15 19 56 25 91 l11 65 82 0 c100 1 156 23 209 82 49 54 57 88 65 279 l6 161
41 16 c23 9 114 61 203 115 206 125 230 135 331 129 102 -6 125 -19 335 -192
125 -103 167 -143 167 -159 0 -21 -183 -1415 -195 -1485 -3 -17 -16 -41 -27
-52 -22 -20 -37 -20 -1818 -20 l-1797 0 -21 23 c-18 20 -31 102 -121 777 -56
415 -101 760 -101 765 0 19 408 316 452 330 67 21 195 18 246 -5z"/>
</g>
</svg>
