<?xml version="1.0" standalone="no"?>
<!DOCTYPE svg PUBLIC "-//W3C//DTD SVG 20010904//EN"
 "http://www.w3.org/TR/2001/REC-SVG-20010904/DTD/svg10.dtd">
<svg version="1.0" xmlns="http://www.w3.org/2000/svg"
 width="512.000000pt" height="512.000000pt" viewBox="0 0 512.000000 512.000000"
 preserveAspectRatio="xMidYMid meet">

<g transform="translate(0.000000,512.000000) scale(0.100000,-0.100000)"
fill="#000000" stroke="none">
<path d="M1723 4275 c-97 -31 -174 -108 -213 -213 -19 -49 -21 -74 -18 -177 3
-113 5 -125 36 -187 37 -75 83 -121 157 -154 39 -17 309 -63 1190 -203 627
-99 1156 -185 1175 -191 60 -16 85 -54 150 -223 33 -87 60 -162 60 -168 0 -5
-105 -9 -260 -9 l-260 0 0 49 c0 26 -5 62 -11 79 -22 64 -6 62 -567 62 l-509
0 -25 -25 c-27 -27 -38 -63 -38 -125 l0 -38 -577 -5 c-599 -5 -628 -7 -803
-51 -522 -133 -955 -536 -1125 -1049 -60 -180 -91 -390 -83 -562 4 -103 25
-151 86 -198 80 -61 -84 -57 2492 -55 2307 3 2356 3 2394 22 50 25 97 72 122
122 18 37 19 70 22 798 3 811 1 851 -48 996 -25 75 -413 951 -446 1007 -29 50
-94 105 -156 133 -34 15 -360 64 -1336 200 -709 99 -1307 180 -1328 179 -22
-1 -58 -7 -81 -14z m1361 -350 c693 -97 1280 -183 1304 -191 24 -9 52 -29 66
-47 22 -30 397 -870 431 -967 43 -120 45 -158 45 -924 0 -723 0 -733 -20 -754
l-21 -22 -2324 0 c-1486 0 -2333 4 -2349 10 -24 9 -26 14 -26 77 3 718 481
1296 1184 1431 70 13 279 16 1517 21 l1435 6 42 28 c24 15 51 45 63 69 35 68
23 141 -54 340 -70 180 -84 205 -148 263 -57 51 -109 72 -225 89 -54 9 -522
83 -1039 166 -517 83 -998 159 -1068 170 -142 21 -173 36 -202 96 -25 53 -18
211 11 251 21 28 77 63 103 63 7 0 581 -79 1275 -175z"/>
</g>
</svg>
