<?xml version="1.0" standalone="no"?>
<!DOCTYPE svg PUBLIC "-//W3C//DTD SVG 20010904//EN"
 "http://www.w3.org/TR/2001/REC-SVG-20010904/DTD/svg10.dtd">
<svg version="1.0" xmlns="http://www.w3.org/2000/svg"
 width="512.000000pt" height="512.000000pt" viewBox="0 0 512.000000 512.000000"
 preserveAspectRatio="xMidYMid meet">

<g transform="translate(0.000000,512.000000) scale(0.100000,-0.100000)"
fill="#000000" stroke="none">
<path d="M85 4016 c-40 -40 -57 -66 -69 -106 -18 -60 -21 -196 -6 -250 27 -99
114 -179 215 -200 49 -10 53 -14 59 -43 7 -41 100 -727 211 -1556 63 -472 91
-654 105 -680 26 -52 64 -89 112 -111 42 -19 86 -20 1873 -20 l1830 0 52 30
c60 34 97 84 112 150 6 25 76 535 157 1135 80 599 146 1090 147 1091 1 0 21 6
44 12 61 18 121 69 157 132 27 48 31 66 34 151 5 119 -12 187 -64 247 -62 73
-135 93 -188 51 -41 -32 -35 -62 31 -148 31 -42 33 -48 33 -127 0 -80 -1 -83
-31 -108 -22 -19 -42 -26 -73 -26 -84 0 -89 -14 -137 -378 -18 -139 -36 -252
-40 -252 -4 0 -59 43 -124 96 -200 165 -273 198 -435 197 -128 -1 -170 -17
-391 -150 -104 -63 -205 -117 -232 -123 -27 -7 -86 -11 -140 -8 -106 5 -102 3
-357 152 -91 53 -187 104 -215 113 -68 21 -234 29 -304 13 -86 -19 -145 -49
-285 -145 -158 -107 -197 -125 -290 -132 -105 -8 -156 11 -361 134 -99 59
-205 115 -235 125 -122 41 -290 30 -405 -27 -27 -13 -120 -76 -205 -140 -131
-98 -156 -113 -162 -98 -4 10 -21 131 -38 268 -17 138 -35 267 -41 287 -12 47
-49 68 -119 68 -96 0 -119 26 -120 136 0 77 2 83 33 125 65 84 71 112 34 147
-17 16 -36 22 -71 22 -44 0 -51 -4 -101 -54z m2634 -917 c24 -11 121 -64 215
-119 228 -133 258 -143 416 -144 164 -1 207 14 441 155 100 60 200 114 223
120 56 15 162 6 216 -18 25 -11 123 -85 218 -163 127 -105 172 -148 172 -164
0 -21 -184 -1415 -195 -1484 -4 -18 -15 -42 -26 -53 -19 -19 -50 -19 -1817
-19 l-1799 0 -21 23 c-19 20 -31 98 -122 774 -55 414 -100 758 -100 765 0 15
342 274 417 316 55 30 180 42 250 23 22 -6 117 -57 210 -113 92 -56 193 -112
224 -125 120 -49 290 -50 413 -2 28 11 114 62 191 113 77 52 151 100 165 107
78 41 226 45 309 8z"/>
<path d="M1900 2253 l-193 -236 17 -76 c10 -42 20 -84 22 -93 5 -16 23 -18
195 -18 l189 0 0 -65 0 -65 125 0 125 0 0 65 0 65 45 0 45 0 0 95 0 95 -45 0
-45 0 0 235 0 235 -144 0 -143 0 -193 -237z m228 -140 l-3 -98 -79 -3 c-67 -2
-78 -1 -73 12 9 22 141 186 150 186 4 0 6 -44 5 -97z"/>
<path d="M2904 2479 c-212 -27 -354 -243 -315 -479 20 -125 98 -240 195 -289
101 -50 241 -50 343 1 67 33 145 123 174 199 20 53 24 82 24 169 0 132 -24
202 -96 283 -82 92 -195 132 -325 116z m97 -235 c43 -22 69 -83 69 -167 0
-111 -41 -177 -110 -177 -78 0 -114 56 -115 180 0 71 4 91 22 121 36 57 80 71
134 43z"/>
</g>
</svg>
